<?xml version="1.0" encoding="UTF-8" standalone="no"?>
<!DOCTYPE svg PUBLIC "-//W3C//DTD SVG 1.1//EN"
 "http://www.w3.org/Graphics/SVG/1.1/DTD/svg11.dtd">
<!-- Generated by graphviz version 2.38.0 (20140413.2041)
 -->
<!-- Title: G Pages: 1 -->
<svg width="1010pt" height="636pt"
 viewBox="0.00 0.00 1010.00 636.00" xmlns="http://www.w3.org/2000/svg" xmlns:xlink="http://www.w3.org/1999/xlink">
<g id="graph0" class="graph" transform="scale(1 1) rotate(0) translate(4 632)">
<title>G</title>
<polygon fill="white" stroke="none" points="-4,4 -4,-632 1006,-632 1006,4 -4,4"/>
<!-- 2083217611016 -->
<g id="node1" class="node"><title>2083217611016</title>
<polygon fill="none" stroke="black" points="372,-581.5 372,-627.5 650,-627.5 650,-581.5 372,-581.5"/>
<text text-anchor="middle" x="438.5" y="-600.8" font-family="Times New Roman,serif" font-size="14.00">input_1: InputLayer</text>
<polyline fill="none" stroke="black" points="505,-581.5 505,-627.5 "/>
<text text-anchor="middle" x="534" y="-612.3" font-family="Times New Roman,serif" font-size="14.00">input:</text>
<polyline fill="none" stroke="black" points="505,-604.5 563,-604.5 "/>
<text text-anchor="middle" x="534" y="-589.3" font-family="Times New Roman,serif" font-size="14.00">output:</text>
<polyline fill="none" stroke="black" points="563,-581.5 563,-627.5 "/>
<text text-anchor="middle" x="606.5" y="-612.3" font-family="Times New Roman,serif" font-size="14.00">(None, 150)</text>
<polyline fill="none" stroke="black" points="563,-604.5 650,-604.5 "/>
<text text-anchor="middle" x="606.5" y="-589.3" font-family="Times New Roman,serif" font-size="14.00">(None, 150)</text>
</g>
<!-- 2083217612136 -->
<g id="node2" class="node"><title>2083217612136</title>
<polygon fill="none" stroke="black" points="338,-498.5 338,-544.5 684,-544.5 684,-498.5 338,-498.5"/>
<text text-anchor="middle" x="423.5" y="-517.8" font-family="Times New Roman,serif" font-size="14.00">embedding_1: Embedding</text>
<polyline fill="none" stroke="black" points="509,-498.5 509,-544.5 "/>
<text text-anchor="middle" x="538" y="-529.3" font-family="Times New Roman,serif" font-size="14.00">input:</text>
<polyline fill="none" stroke="black" points="509,-521.5 567,-521.5 "/>
<text text-anchor="middle" x="538" y="-506.3" font-family="Times New Roman,serif" font-size="14.00">output:</text>
<polyline fill="none" stroke="black" points="567,-498.5 567,-544.5 "/>
<text text-anchor="middle" x="625.5" y="-529.3" font-family="Times New Roman,serif" font-size="14.00">(None, 150)</text>
<polyline fill="none" stroke="black" points="567,-521.5 684,-521.5 "/>
<text text-anchor="middle" x="625.5" y="-506.3" font-family="Times New Roman,serif" font-size="14.00">(None, 150, 300)</text>
</g>
<!-- 2083217611016&#45;&gt;2083217612136 -->
<g id="edge1" class="edge"><title>2083217611016&#45;&gt;2083217612136</title>
<path fill="none" stroke="black" d="M511,-581.366C511,-573.152 511,-563.658 511,-554.725"/>
<polygon fill="black" stroke="black" points="514.5,-554.607 511,-544.607 507.5,-554.607 514.5,-554.607"/>
</g>
<!-- 2083217608776 -->
<g id="node3" class="node"><title>2083217608776</title>
<polygon fill="none" stroke="black" points="299,-415.5 299,-461.5 723,-461.5 723,-415.5 299,-415.5"/>
<text text-anchor="middle" x="423.5" y="-434.8" font-family="Times New Roman,serif" font-size="14.00">spatial_dropout1d_1: SpatialDropout1D</text>
<polyline fill="none" stroke="black" points="548,-415.5 548,-461.5 "/>
<text text-anchor="middle" x="577" y="-446.3" font-family="Times New Roman,serif" font-size="14.00">input:</text>
<polyline fill="none" stroke="black" points="548,-438.5 606,-438.5 "/>
<text text-anchor="middle" x="577" y="-423.3" font-family="Times New Roman,serif" font-size="14.00">output:</text>
<polyline fill="none" stroke="black" points="606,-415.5 606,-461.5 "/>
<text text-anchor="middle" x="664.5" y="-446.3" font-family="Times New Roman,serif" font-size="14.00">(None, 150, 300)</text>
<polyline fill="none" stroke="black" points="606,-438.5 723,-438.5 "/>
<text text-anchor="middle" x="664.5" y="-423.3" font-family="Times New Roman,serif" font-size="14.00">(None, 150, 300)</text>
</g>
<!-- 2083217612136&#45;&gt;2083217608776 -->
<g id="edge2" class="edge"><title>2083217612136&#45;&gt;2083217608776</title>
<path fill="none" stroke="black" d="M511,-498.366C511,-490.152 511,-480.658 511,-471.725"/>
<polygon fill="black" stroke="black" points="514.5,-471.607 511,-461.607 507.5,-471.607 514.5,-471.607"/>
</g>
<!-- 2083217659888 -->
<g id="node4" class="node"><title>2083217659888</title>
<polygon fill="none" stroke="black" points="290,-332.5 290,-378.5 732,-378.5 732,-332.5 290,-332.5"/>
<text text-anchor="middle" x="423.5" y="-351.8" font-family="Times New Roman,serif" font-size="14.00">bidirectional_1(gru_1): Bidirectional(GRU)</text>
<polyline fill="none" stroke="black" points="557,-332.5 557,-378.5 "/>
<text text-anchor="middle" x="586" y="-363.3" font-family="Times New Roman,serif" font-size="14.00">input:</text>
<polyline fill="none" stroke="black" points="557,-355.5 615,-355.5 "/>
<text text-anchor="middle" x="586" y="-340.3" font-family="Times New Roman,serif" font-size="14.00">output:</text>
<polyline fill="none" stroke="black" points="615,-332.5 615,-378.5 "/>
<text text-anchor="middle" x="673.5" y="-363.3" font-family="Times New Roman,serif" font-size="14.00">(None, 150, 300)</text>
<polyline fill="none" stroke="black" points="615,-355.5 732,-355.5 "/>
<text text-anchor="middle" x="673.5" y="-340.3" font-family="Times New Roman,serif" font-size="14.00">(None, 150, 256)</text>
</g>
<!-- 2083217608776&#45;&gt;2083217659888 -->
<g id="edge3" class="edge"><title>2083217608776&#45;&gt;2083217659888</title>
<path fill="none" stroke="black" d="M511,-415.366C511,-407.152 511,-397.658 511,-388.725"/>
<polygon fill="black" stroke="black" points="514.5,-388.607 511,-378.607 507.5,-388.607 514.5,-388.607"/>
</g>
<!-- 2083578208040 -->
<g id="node5" class="node"><title>2083578208040</title>
<polygon fill="none" stroke="black" points="357,-249.5 357,-295.5 665,-295.5 665,-249.5 357,-249.5"/>
<text text-anchor="middle" x="423.5" y="-268.8" font-family="Times New Roman,serif" font-size="14.00">conv1d_1: Conv1D</text>
<polyline fill="none" stroke="black" points="490,-249.5 490,-295.5 "/>
<text text-anchor="middle" x="519" y="-280.3" font-family="Times New Roman,serif" font-size="14.00">input:</text>
<polyline fill="none" stroke="black" points="490,-272.5 548,-272.5 "/>
<text text-anchor="middle" x="519" y="-257.3" font-family="Times New Roman,serif" font-size="14.00">output:</text>
<polyline fill="none" stroke="black" points="548,-249.5 548,-295.5 "/>
<text text-anchor="middle" x="606.5" y="-280.3" font-family="Times New Roman,serif" font-size="14.00">(None, 150, 256)</text>
<polyline fill="none" stroke="black" points="548,-272.5 665,-272.5 "/>
<text text-anchor="middle" x="606.5" y="-257.3" font-family="Times New Roman,serif" font-size="14.00">(None, 148, 64)</text>
</g>
<!-- 2083217659888&#45;&gt;2083578208040 -->
<g id="edge4" class="edge"><title>2083217659888&#45;&gt;2083578208040</title>
<path fill="none" stroke="black" d="M511,-332.366C511,-324.152 511,-314.658 511,-305.725"/>
<polygon fill="black" stroke="black" points="514.5,-305.607 511,-295.607 507.5,-305.607 514.5,-305.607"/>
</g>
<!-- 2083616139416 -->
<g id="node6" class="node"><title>2083616139416</title>
<polygon fill="none" stroke="black" points="0,-166.5 0,-212.5 512,-212.5 512,-166.5 0,-166.5"/>
<text text-anchor="middle" x="172" y="-185.8" font-family="Times New Roman,serif" font-size="14.00">global_average_pooling1d_1: GlobalAveragePooling1D</text>
<polyline fill="none" stroke="black" points="344,-166.5 344,-212.5 "/>
<text text-anchor="middle" x="373" y="-197.3" font-family="Times New Roman,serif" font-size="14.00">input:</text>
<polyline fill="none" stroke="black" points="344,-189.5 402,-189.5 "/>
<text text-anchor="middle" x="373" y="-174.3" font-family="Times New Roman,serif" font-size="14.00">output:</text>
<polyline fill="none" stroke="black" points="402,-166.5 402,-212.5 "/>
<text text-anchor="middle" x="457" y="-197.3" font-family="Times New Roman,serif" font-size="14.00">(None, 148, 64)</text>
<polyline fill="none" stroke="black" points="402,-189.5 512,-189.5 "/>
<text text-anchor="middle" x="457" y="-174.3" font-family="Times New Roman,serif" font-size="14.00">(None, 64)</text>
</g>
<!-- 2083578208040&#45;&gt;2083616139416 -->
<g id="edge5" class="edge"><title>2083578208040&#45;&gt;2083616139416</title>
<path fill="none" stroke="black" d="M441.657,-249.473C408.77,-239.027 369.314,-226.494 335.248,-215.673"/>
<polygon fill="black" stroke="black" points="335.92,-212.214 325.329,-212.522 333.8,-218.885 335.92,-212.214"/>
</g>
<!-- 2083616140648 -->
<g id="node7" class="node"><title>2083616140648</title>
<polygon fill="none" stroke="black" points="530,-166.5 530,-212.5 1002,-212.5 1002,-166.5 530,-166.5"/>
<text text-anchor="middle" x="682" y="-185.8" font-family="Times New Roman,serif" font-size="14.00">global_max_pooling1d_1: GlobalMaxPooling1D</text>
<polyline fill="none" stroke="black" points="834,-166.5 834,-212.5 "/>
<text text-anchor="middle" x="863" y="-197.3" font-family="Times New Roman,serif" font-size="14.00">input:</text>
<polyline fill="none" stroke="black" points="834,-189.5 892,-189.5 "/>
<text text-anchor="middle" x="863" y="-174.3" font-family="Times New Roman,serif" font-size="14.00">output:</text>
<polyline fill="none" stroke="black" points="892,-166.5 892,-212.5 "/>
<text text-anchor="middle" x="947" y="-197.3" font-family="Times New Roman,serif" font-size="14.00">(None, 148, 64)</text>
<polyline fill="none" stroke="black" points="892,-189.5 1002,-189.5 "/>
<text text-anchor="middle" x="947" y="-174.3" font-family="Times New Roman,serif" font-size="14.00">(None, 64)</text>
</g>
<!-- 2083578208040&#45;&gt;2083616140648 -->
<g id="edge6" class="edge"><title>2083578208040&#45;&gt;2083616140648</title>
<path fill="none" stroke="black" d="M580.343,-249.473C613.23,-239.027 652.686,-226.494 686.752,-215.673"/>
<polygon fill="black" stroke="black" points="688.2,-218.885 696.671,-212.522 686.08,-212.214 688.2,-218.885"/>
</g>
<!-- 2083616138968 -->
<g id="node8" class="node"><title>2083616138968</title>
<polygon fill="none" stroke="black" points="315,-83.5 315,-129.5 707,-129.5 707,-83.5 315,-83.5"/>
<text text-anchor="middle" x="402.5" y="-102.8" font-family="Times New Roman,serif" font-size="14.00">concatenate_1: Concatenate</text>
<polyline fill="none" stroke="black" points="490,-83.5 490,-129.5 "/>
<text text-anchor="middle" x="519" y="-114.3" font-family="Times New Roman,serif" font-size="14.00">input:</text>
<polyline fill="none" stroke="black" points="490,-106.5 548,-106.5 "/>
<text text-anchor="middle" x="519" y="-91.3" font-family="Times New Roman,serif" font-size="14.00">output:</text>
<polyline fill="none" stroke="black" points="548,-83.5 548,-129.5 "/>
<text text-anchor="middle" x="627.5" y="-114.3" font-family="Times New Roman,serif" font-size="14.00">[(None, 64), (None, 64)]</text>
<polyline fill="none" stroke="black" points="548,-106.5 707,-106.5 "/>
<text text-anchor="middle" x="627.5" y="-91.3" font-family="Times New Roman,serif" font-size="14.00">(None, 128)</text>
</g>
<!-- 2083616139416&#45;&gt;2083616138968 -->
<g id="edge7" class="edge"><title>2083616139416&#45;&gt;2083616138968</title>
<path fill="none" stroke="black" d="M325.343,-166.473C358.23,-156.027 397.686,-143.494 431.752,-132.673"/>
<polygon fill="black" stroke="black" points="433.2,-135.885 441.671,-129.522 431.08,-129.214 433.2,-135.885"/>
</g>
<!-- 2083616140648&#45;&gt;2083616138968 -->
<g id="edge8" class="edge"><title>2083616140648&#45;&gt;2083616138968</title>
<path fill="none" stroke="black" d="M696.657,-166.473C663.77,-156.027 624.314,-143.494 590.248,-132.673"/>
<polygon fill="black" stroke="black" points="590.92,-129.214 580.329,-129.522 588.8,-135.885 590.92,-129.214"/>
</g>
<!-- 2083617054056 -->
<g id="node9" class="node"><title>2083617054056</title>
<polygon fill="none" stroke="black" points="385,-0.5 385,-46.5 637,-46.5 637,-0.5 385,-0.5"/>
<text text-anchor="middle" x="438.5" y="-19.8" font-family="Times New Roman,serif" font-size="14.00">dense_1: Dense</text>
<polyline fill="none" stroke="black" points="492,-0.5 492,-46.5 "/>
<text text-anchor="middle" x="521" y="-31.3" font-family="Times New Roman,serif" font-size="14.00">input:</text>
<polyline fill="none" stroke="black" points="492,-23.5 550,-23.5 "/>
<text text-anchor="middle" x="521" y="-8.3" font-family="Times New Roman,serif" font-size="14.00">output:</text>
<polyline fill="none" stroke="black" points="550,-0.5 550,-46.5 "/>
<text text-anchor="middle" x="593.5" y="-31.3" font-family="Times New Roman,serif" font-size="14.00">(None, 128)</text>
<polyline fill="none" stroke="black" points="550,-23.5 637,-23.5 "/>
<text text-anchor="middle" x="593.5" y="-8.3" font-family="Times New Roman,serif" font-size="14.00">(None, 6)</text>
</g>
<!-- 2083616138968&#45;&gt;2083617054056 -->
<g id="edge9" class="edge"><title>2083616138968&#45;&gt;2083617054056</title>
<path fill="none" stroke="black" d="M511,-83.3664C511,-75.1516 511,-65.6579 511,-56.7252"/>
<polygon fill="black" stroke="black" points="514.5,-56.6068 511,-46.6068 507.5,-56.6069 514.5,-56.6068"/>
</g>
</g>
</svg>
